<svg xmlns="http://www.w3.org/2000/svg" version="1.1" xmlns:xlink="http://www.w3.org/1999/xlink" xmlns:svgjs="http://svgjs.com/svgjs" width="1000" height="1000"><rect width="1000" height="1000" rx="250" ry="250" fill="#555555"></rect><g transform="matrix(0.5208333333333334,0,0,0.5208333333333334,13.09844811757398,218.75001096725464)"><svg xmlns="http://www.w3.org/2000/svg" version="1.1" xmlns:xlink="http://www.w3.org/1999/xlink" xmlns:svgjs="http://svgjs.com/svgjs" width="1920" height="1080"><svg version="1.1" id="Layer_1" xmlns="http://www.w3.org/2000/svg" xmlns:xlink="http://www.w3.org/1999/xlink" x="0px" y="0px" viewBox="0 0 1920 1080" style="enable-background:new 0 0 1920 1080;" xml:space="preserve">
<style type="text/css">
	.st0{fill:#FFFFFF;}
</style>
<path class="st0" d="M235.8,1017L819.4,65.8c9.8-15.1,22.3-22.7,37.5-22.7h121.5v993.8H856.9c-15.1,0-27.6-7.6-37.5-22.7L623,693.3
	l-197.5,320.9c-9.8,15.2-22.3,22.7-37.5,22.7H243.8c-3.8,0-6.8-2.1-9.1-6.4C232.4,1026.3,232.8,1021.8,235.8,1017z M716.3,541.4
	L833.4,732V350.9L716.3,541.4z"></path>
<path class="st0" d="M995.9,1019.9V55.6c0-0.1,0-0.3,0.1-0.4c3.1-8,7.6-12.1,13.5-12.1h107.9c15.1,0,27.6,7.6,37.5,22.7l584.7,951.2
	c2.3,4.7,2.4,9.2,0.6,13.5c-1.9,4.2-5.1,6.4-9.7,6.4h-144.2c-15.1,0-27.6-7.6-37.5-22.7l-196.4-320.9l-197.6,320.9
	c-9.8,15.2-22.3,22.7-37.5,22.7H1006c-0.2,0-0.3-0.1-0.5-0.1C999,1032.9,995.9,1027.2,995.9,1019.9z M1140.8,350.9V732l117.1-190.5
	L1140.8,350.9z"></path>
</svg></svg></g></svg>