<svg version="1" xmlns="http://www.w3.org/2000/svg" width="682.667" height="682.667" viewBox="0 0 512.000000 512.000000"><path d="M229.9 52.8c-6.3 2.6-10.9 6.2-11.6 9.2-.3 1.4-.8 2.9-1.2 3.5-.3.5-.6 1.4-.7 2-.2.5-2.7 8.2-5.8 17.1-4.1 11.8-7.5 19.6-13.2 29.5-4.1 7.4-8 13.8-8.5 14.3-.5.6-.9 1.8-.9 2.7 0 1-.3 1.9-.8 2.1-.7.3-8.2 12.5-8.2 13.4 0 .2-1 2.1-2.3 4.2-1.3 2-3.7 6.2-5.4 9.2-1.6 3-4.2 7.5-5.7 10-1.4 2.5-3.4 6.2-4.3 8.2-1 2.1-2.1 3.8-2.5 3.8-.5 0-.8.4-.8.9 0 1.4-25.3 45.6-27 47.1-.5.5-9.9 13-23.5 31.5-7.5 10.1-25.6 36.2-29.1 41.7-1.6 2.7-3.2 4.8-3.6 4.8-.5 0-.8.4-.8 1 0 .5-1.7 3.6-3.7 6.7-2.1 3.2-4 6.3-4.3 6.9-.3.6-3.9 4.9-8.2 9.5-4.2 4.6-10.2 11.5-13.3 15.4-3.1 3.8-6.3 7.8-7.2 8.9-3 3.7-12.1 17.2-14.8 22.1-5.7 10.3-7.3 16.2-7.4 28.2-.2 10.2 0 11.3 1.8 12.2 1.1.6 2.9 1.1 4 1.1 1.2 0 2.9 1 3.9 2.2 3.8 4.8 8.6 8.8 11.8 9.8 2.2.8 3.4 1.8 3.4 3 0 1.3.7 1.8 2.2 1.7 1.3 0 2.6-.6 3-1.1.4-.5 1 .3 1.4 2 1.5 6.6 11 15.1 14.7 13.2 1.8-.9 2.4.1 5 7.4 1.4 3.8 9.2-.3 18.2-9.7 3.9-4 7.5-7.9 8-8.6.6-.8 3-4.3 5.5-7.9 2.4-3.6 4.8-7 5.2-7.5 4.3-5.4 16.8-22.9 16.8-23.6 0-.5.4-.9.8-.9s2.6-2.3 4.7-5.2c5.9-7.7 11.2-13.7 11.7-13.2.3.2 1.6-1.7 2.9-4.3 3.1-6.2 5.4-8.3 14.2-13.5 9.1-5.5 13.8-7.7 26.2-12.6 15.4-6.1 51.4-18.4 57.8-19.7 1-.2 5.7-1.6 10.5-3 16.4-4.9 19.1-5.7 22.2-6.1 1.6-.3 3-.2 3.1.3.3 2.7.7 5.4 1.7 10.3.6 3 1.4 6.6 1.7 8 .2 1.4 1.4 6.8 2.5 12s2.3 10.8 2.6 12.5c.2 1.6.7 4.1 1.1 5.5.3 1.4.7 3 .9 3.6.1.7 1 4.5 1.9 8.5.9 4.1 1.9 8.5 2.1 9.9.3 1.4.7 3.2 1.1 4 .3.8.9 3.2 1.4 5.2 1.3 5.5 2.6 10.8 3.9 15.3.6 2.2 1.2 4.7 1.4 5.5.2.8 1.2 3.7 2.1 6.5 1 2.7 1.9 5.4 2 6 1 4.6 5 10.3 12.5 17.7l8.8 8.7 8.8-3.5c4.9-2 9.6-3.9 10.4-4.3 1-.6 2.9.3 5.9 2.5l4.3 3.4 2.6-2c3.2-2.6 4.1-2.5 3.5.1-.5 1.7-.2 2 1.8 1.7 1.9-.2 2.4-.9 2.3-3.1-.1-1.5.1-2.7.3-2.7.2 0 2.1 1.1 4.1 2.5 2.1 1.4 5.8 2.7 8.1 3 3.9.3 4.6 0 7.5-3 2.9-3.3 3.1-3.9 3-10.7-.3-13-1.9-27.3-5.4-47.8-.5-3-1.2-7-1.5-8.9-.3-1.9-.8-3.7-1-4-.2-.4-.6-2.7-1-5.1-.3-2.5-1-6.1-1.5-8-.5-1.9-1.1-4.6-1.4-6-.2-1.4-1.2-5.9-2.1-10-.9-4.1-1.9-8.6-2.1-9.9-.3-1.4-.7-2.8-.9-3.1-.2-.4-.7-2.2-1-4.1-.3-1.9-1.1-5.2-1.7-7.4-.5-2.2-1.2-5-1.4-6.2-.2-1.2-.9-3.4-1.4-4.9-.6-1.5-.8-2.9-.6-3.1.3-.3 0-1.7-.6-3.2-2.6-6.7-3-13.3-.8-13.6 9.2-1.5 17.1-2.7 20-3.1 1.9-.2 5.5-.9 8-1.4 2.5-.6 6.8-1.2 9.5-1.5 2.8-.2 6.6-.7 8.5-1 3.8-.6 8.8-1.3 16-2 2.5-.3 6.8-1 9.5-1.5 2.8-.5 6.8-1.2 9-1.5 6.1-.9 9.8-1.5 11.5-2 .8-.3 3.5-.7 5.9-1 2.4-.3 4.7-.8 5.1-1 .4-.3 2.5-.7 4.6-1.1 3.3-.5 17.5-3.8 20.9-4.8.6-.2 1.2-.4 1.5-.4 1.6-.3 12.3-4.3 16.6-6.1 3.9-1.7 5.1-2.7 5-4.3-.1-1.6-1.4-2.5-5.6-3.9-3-1-6.3-1.8-7.4-1.8-1.5-.1-1.6-.4-.6-1.6 2.3-2.8-2.3-5.8-10.5-7-2.7-.4-6.1-.9-7.5-1.1-6.1-1-25.1-1.2-28.4-.3-3 .8-3.9.7-5.4-.7-.9-1-4.1-2.8-7-4.2-4.9-2.2-6-2.3-11.3-1.5-5.4.9-5.9.8-5.9-.9 0-1 .3-1.8.8-1.9.4 0 2.2-.2 4.1-.4 4.8-.5 7.2-1.1 18.4-4.6 8.7-2.8 9.7-3.3 9.7-5.5 0-2.1-.4-2.4-2.7-1.9-6.6 1.2-12.2 1.8-17.8 1.9-6.4.2-8.5-.2-8.5-1.4 0-.7 6.5-3.1 12.2-4.4 1.9-.4 2.6-1.2 2.5-2.6-.1-1.9-.7-1.9-10.7-1.4-25.3 1.3-24.2 1.4-24.7-.7-.5-1.8-1.2-1.9-6.5-1.4-3.3.4-6.7.8-7.6 1-.9.1-4.6.6-8.2 1-6.2.6-7.5.8-14.5 1.9-1.6.2-5.9.8-9.5 1.1-3.6.4-7.3.9-8.4 1.1-14.4 2.7-16.4 1.6-17.9-10.3-.2-1.1-.8-2.7-1.4-3.5-1.1-1.3-1.7-4.5-2.8-14.1-.4-4.1-1-8.2-2-16.2-.1-1.1-.6-4.9-1-8.5-.4-3.6-.9-7.6-1.1-9-.5-2.8-1-6.3-1.9-13.5-.9-6.5-1.3-9.1-2-14-.3-2.2-.8-5.5-1-7.4-.3-1.9-.8-4.8-1.1-6.5-.3-1.7-.7-4.6-1-6.5-.4-3.4-.9-6.3-1.9-11.1-2.6-13.3-3.9-18.8-4.7-21-.5-1.4-.8-2.5-.7-2.5.6 0-5.9-9.1-8.7-12.1-4.9-5.4-11.9-9.6-23.9-14.4-2.3-1-6.7-2-11-2.7-1.6-.2-4.1-.7-5.5-1-1.4-.3-7.9-.7-14.5-.9-10-.3-12.8-.1-16.6 1.4zM251.4 213c.2 1.9.7 4.2 1 5 .3.8.8 3.2 1.1 5.3.3 2.1 1.2 7.2 2.1 11.4.8 4.1 1.3 8.1 1.1 8.7-.5 1.3-11.4 5.2-25.7 9.2-10.3 2.9-9.9 2.9-9.3.4.3-1.1.9-2 1.4-2 .5 0 .9-.5.9-1.1 0-3.4 25.2-42 26.6-40.7.2.2.5 2 .8 3.8zM422 233.1c0 1-2.7 1.9-3.4 1.2-1.2-1.2-.5-2.2 1.4-2 1.1.1 2 .4 2 .8z"/><path d="M415.9 217.8c0 .4-.2 1.5-.4 2.5-.3 1.4.2 1.7 1.8 1.5 2.9-.4 3.4-3.4.7-4.1-1.1-.3-2-.2-2.1.1z"/></svg>